<svg width="18" height="17" fill="none" xmlns="http://www.w3.org/2000/svg"><path d="M15.568 1.577H2.496c-.656 0-1.188.532-1.188 1.188V7.52c0 .656.532 1.188 1.188 1.188h13.072c.656 0 1.188-.532 1.188-1.188V2.765c0-.656-.532-1.188-1.188-1.188z" stroke="#A9BCD9" stroke-width="1.176" stroke-linecap="round" stroke-linejoin="round"/><path d="M4.873 5.736a.594.594 0 100-1.188.594.594 0 000 1.188zm4.753-.594h4.159M2.496 8.707a1.188 1.188 0 00-1.188 1.188v4.754a1.188 1.188 0 001.188 1.188h13.072a1.188 1.188 0 001.188-1.188V9.895a1.189 1.189 0 00-1.188-1.188" stroke="#A9BCD9" stroke-width="1.176" stroke-linecap="round" stroke-linejoin="round"/><path d="M4.873 12.866a.594.594 0 100-1.188.594.594 0 000 1.188zm4.753-.594h4.159" stroke="#A9BCD9" stroke-width="1.176" stroke-linecap="round" stroke-linejoin="round"/></svg>