<svg width="21" height="21" fill="none" xmlns="http://www.w3.org/2000/svg"><path d="M5.318 15.82V4.303a2.88 2.88 0 012.88-2.88h8.997m-2.519 4.319V17.26a2.879 2.879 0 01-2.88 2.879" stroke="#A9BCD9" stroke-width="1.176" stroke-linecap="round" stroke-linejoin="round"/><path d="M8.918 17.259v-.72a.72.72 0 00-.72-.72H1.72a.72.72 0 00-.72.72v.72a2.88 2.88 0 002.88 2.88h7.917a2.88 2.88 0 01-2.88-2.88zm8.277-15.835a2.52 2.52 0 012.52 2.52v1.079a.72.72 0 01-.72.72h-4.32v-1.8a2.52 2.52 0 012.52-2.52v0zM8.918 6.462h2.16m-2.16 4.319h2.16" stroke="#A9BCD9" stroke-width="1.176" stroke-linecap="round" stroke-linejoin="round"/></svg>