<svg width="22" height="21" fill="none" xmlns="http://www.w3.org/2000/svg"><path d="M19.538 1H2.546C1.692 1 1 1.692 1 2.545v6.18c0 .853.692 1.544 1.545 1.544h16.994c.853 0 1.544-.691 1.544-1.545v-6.18c0-.852-.691-1.544-1.544-1.544z" stroke="#A9BCD9" stroke-width="1.176" stroke-linecap="round" stroke-linejoin="round"/><path d="M5.635 6.407a.772.772 0 100-1.545.772.772 0 000 1.545zm6.178-.772h5.408M2.545 10.269A1.545 1.545 0 001 11.813v6.18a1.545 1.545 0 001.545 1.545h16.994a1.545 1.545 0 001.544-1.545v-6.18a1.545 1.545 0 00-1.544-1.544" stroke="#A9BCD9" stroke-width="1.176" stroke-linecap="round" stroke-linejoin="round"/><path d="M5.635 15.676a.772.772 0 100-1.545.772.772 0 000 1.545zm6.178-.772h5.408" stroke="#A9BCD9" stroke-width="1.176" stroke-linecap="round" stroke-linejoin="round"/></svg>