<svg width="18" height="18" fill="none" xmlns="http://www.w3.org/2000/svg"><path d="M3.083 4.858a1.775 1.775 0 100-3.55 1.775 1.775 0 000 3.55zm0 5.917a1.775 1.775 0 100-3.55 1.775 1.775 0 000 3.55zM9 4.858a1.775 1.775 0 100-3.55 1.775 1.775 0 000 3.55zm0 5.917a1.775 1.775 0 100-3.55 1.775 1.775 0 000 3.55zm0 5.917a1.775 1.775 0 100-3.55 1.775 1.775 0 000 3.55zm5.917-11.834a1.775 1.775 0 100-3.55 1.775 1.775 0 000 3.55zm0 5.917a1.775 1.775 0 100-3.55 1.775 1.775 0 000 3.55zM3.083 16.692a1.775 1.775 0 100-3.55 1.775 1.775 0 000 3.55zm11.834 0a1.775 1.775 0 100-3.55 1.775 1.775 0 000 3.55z" stroke="#A9BCD9" stroke-width="1.39" stroke-linecap="round" stroke-linejoin="round"/></svg>