<svg width="22" height="22" fill="none" xmlns="http://www.w3.org/2000/svg"><path d="M3.308 5.615a2.308 2.308 0 100-4.615 2.308 2.308 0 000 4.615zm0 7.693a2.308 2.308 0 100-4.616 2.308 2.308 0 000 4.616zM11 5.615A2.308 2.308 0 1010.998 1a2.308 2.308 0 000 4.615zm0 7.693a2.308 2.308 0 10-.001-4.616 2.308 2.308 0 000 4.616zM11 21a2.308 2.308 0 100-4.615A2.308 2.308 0 0011 21zm7.692-15.385a2.308 2.308 0 100-4.615 2.308 2.308 0 000 4.615zm0 7.693a2.308 2.308 0 100-4.616 2.308 2.308 0 000 4.616zM3.308 21a2.308 2.308 0 100-4.615 2.308 2.308 0 000 4.615zm15.384 0a2.308 2.308 0 100-4.615 2.308 2.308 0 000 4.615z" stroke="#A9BCD9" stroke-width="1.39" stroke-linecap="round" stroke-linejoin="round"/></svg>